<?xml version="1.0" encoding="utf-8"?>
<!-- Generator: Adobe Illustrator 17.0.0, SVG Export Plug-In . SVG Version: 6.00 Build 0)  -->
<!DOCTYPE svg PUBLIC "-//W3C//DTD SVG 1.1//EN" "http://www.w3.org/Graphics/SVG/1.1/DTD/svg11.dtd">
<svg version="1.1" id="Layer_1" xmlns="http://www.w3.org/2000/svg" xmlns:xlink="http://www.w3.org/1999/xlink" x="0px" y="0px"
	 width="263.427px" height="308.068px" viewBox="0 0 263.427 308.068" enable-background="new 0 0 263.427 308.068"
	 xml:space="preserve">
<g id="XMLID_1_">
	<g id="XMLID_2_">
		<path id="XMLID_48_" fill="#B89B30" d="M215.026,210.123c19.353-8.271,30.03-24.079,31.03-44.546
			c-15.537,34.431-46.597,33.051-73.503,43.3c-25.755,9.821-32.16,26.151-33.781,34.129l-0.532,1.046
			c1.998-9.707,9.361-31.559,35.757-43.544c35.3-16.091,48.89-42.786,40.38-71.443c-3.386,39.244-33.426,44.916-56.086,64.89
			c-12.993,11.415-18.55,23.436-20.745,33.298l-0.068-14.018c2.834-13.636,9.705-29.638,24.774-44.688
			c37.599-37.379,42.942-77.672,19.532-109.854c13.055,51.283-17.169,66.719-36.978,102.956c-2.584,4.715-4.72,9.339-6.486,13.909
			c0.422-7.76,1.033-15.711,1.919-24.319c14.84-63.361,7.634-123.511-9.923-142.24c-17.584,18.729-24.789,78.879-9.921,142.24
			c0.891,8.608,1.484,16.559,1.924,24.319c-1.762-4.57-3.91-9.194-6.477-13.909c-19.856-36.237-50.054-51.674-36.995-102.956
			c-23.419,32.183-18.036,72.476,19.49,109.854c15.102,15.051,21.969,31.052,24.807,44.688l-0.047,14.018
			c-2.186-9.862-7.776-21.883-20.747-33.298c-22.666-19.974-52.707-25.647-56.133-64.89c-8.46,28.657,5.113,55.352,40.423,71.443
			c26.365,11.985,33.72,33.837,35.77,43.544l-0.563-1.046c-1.619-7.978-8.029-24.307-33.744-34.129
			c-26.923-10.249-57.962-8.869-73.545-43.3c1.004,20.467,11.702,36.275,31.055,44.546c-10.522,7.731-17.112,17.131-20.529,31.187
			c-5.138,21.193,9.041,44.06,29.175,49.773c8.032,2.258,16.387,1.149,23.582-3.155c7.242-4.306,14.629-14.202,16.814-22.592
			c1.791-6.912,0.886-14.126-2.523-20.332c-3.4-6.196-8.91-10.659-15.545-12.548c-11.305-3.199-24.583,6.585-26.303,18.707
			c-1.202,8.279,1.339,17.297,10.471,22.67c0,0-7.155-11.015-4.974-20.671c0.82-3.672,3.17-6.668,6.313-8.546
			c3.115-1.853,6.743-2.348,10.241-1.402c4.548,1.328,8.392,4.443,10.783,8.73c2.358,4.33,2.998,9.358,1.723,14.157
			c-1.62,6.265-7.835,14.028-13.23,17.267c-5.369,3.199-11.668,4.052-17.634,2.342c-7.761-2.158-14.214-7.397-18.235-14.646
			c-3.961-7.317-3.368-18.516-0.597-26.395c3.639-10.252,8.733-17.072,18.276-21.438c9.449-4.294,19.116-4.73,29.027-1.917
			c12.688,3.59,23.331,12.058,29.692,20.527c7.716,10.336,17.693,28.479,18.175,42.255v0.1c0-0.023,0.01-0.044,0.01-0.054
			c0,0.01,0,0.032,0,0.054v-0.1c0.465-13.776,10.443-31.919,18.175-42.255c6.345-8.47,16.979-16.937,29.673-20.527
			c9.937-2.813,19.592-2.377,29.018,1.917c9.572,4.367,14.655,11.187,18.254,21.438c2.796,7.878,3.436,19.078-0.595,26.395
			c-3.99,7.249-10.429,12.488-18.191,14.646c-5.981,1.71-12.264,0.857-17.658-2.342c-5.382-3.239-11.586-11.003-13.219-17.267
			c-1.242-4.8-0.635-9.827,1.714-14.157c2.375-4.287,6.242-7.402,10.806-8.73c3.488-0.946,7.126-0.451,10.261,1.402
			c3.107,1.878,5.474,4.874,6.295,8.546c2.186,9.656-5,20.671-5,20.671c9.164-5.373,11.676-14.391,10.487-22.67
			c-1.726-12.122-15.003-21.906-26.305-18.707c-6.611,1.889-12.126,6.352-15.546,12.548c-3.402,6.206-4.309,13.42-2.511,20.332
			c2.171,8.391,9.593,18.286,16.773,22.592c7.211,4.303,15.577,5.413,23.612,3.155c20.14-5.712,34.318-28.58,29.173-49.773
			C232.129,227.253,225.532,217.854,215.026,210.123z"/>
	</g>
</g>
</svg>
